# xmcd
#
# Track frame offsets:
#	182
#	19770
#	37400
#	57135
#	75162
#	90955
#	109537
#	127887
#	144205
#	161942
#
# Disc length: 2409 seconds
#
# Revision: 0
# Processed by: cddbd v1.5.2PL0 Copyright (c) Steve Scherf et al.
# Submitted via: EasyCDDAExtractor 2010.6.0.0
#
DISCID=7009670a
DTITLE=Nino De Angelo - Guardian Angel
DYEAR=1992
DGENRE=
TTITLE0=Guardian Angel
TTITLE1=I'll Never Die Again
TTITLE2=Ways Of The World
TTITLE3=Heaven And Hell With Luisa
TTITLE4=Hot And Cold
TTITLE5=Young Blood
TTITLE6=Unchained Love
TTITLE7=No More
TTITLE8=It's Hard To Live With A Lie
TTITLE9=Sometimes When I'm Sleeping
EXTD=
EXTT0=
EXTT1=
EXTT2=
EXTT3=
EXTT4=
EXTT5=
EXTT6=
EXTT7=
EXTT8=
EXTT9=
PLAYORDER=
